<svg class="animated" id="freepik_stories-coronavirus-border-closure" xmlns="http://www.w3.org/2000/svg" viewBox="0 0 500 500" version="1.1" xmlns:xlink="http://www.w3.org/1999/xlink" xmlns:svgjs="http://svgjs.com/svgjs"><style>svg#freepik_stories-coronavirus-border-closure:not(.animated) .animable {opacity: 0;}svg#freepik_stories-coronavirus-border-closure.animated #freepik--background-complete--inject-44 {animation: 1s 1 forwards cubic-bezier(.36,-0.01,.5,1.38) fadeIn;animation-delay: 0s;}svg#freepik_stories-coronavirus-border-closure.animated #freepik--Shadow--inject-44 {animation: 1s 1 forwards cubic-bezier(.36,-0.01,.5,1.38) slideDown;animation-delay: 0s;}svg#freepik_stories-coronavirus-border-closure.animated #freepik--character-2--inject-44 {animation: 1s 1 forwards cubic-bezier(.36,-0.01,.5,1.38) zoomIn,1.5s Infinite  linear floating;animation-delay: 0s,1s;}svg#freepik_stories-coronavirus-border-closure.animated #freepik--character-1--inject-44 {animation: 1s 1 forwards cubic-bezier(.36,-0.01,.5,1.38) zoomIn,1.5s Infinite  linear floating;animation-delay: 0s,1s;}svg#freepik_stories-coronavirus-border-closure.animated #freepik--Blockade--inject-44 {animation: 1s 1 forwards cubic-bezier(.36,-0.01,.5,1.38) zoomOut;animation-delay: 0s;}            @keyframes fadeIn {                0% {                    opacity: 0;                }                100% {                    opacity: 1;                }            }                    @keyframes slideDown {                0% {                    opacity: 0;                    transform: translateY(-30px);                }                100% {                    opacity: 1;                    transform: translateY(0);                }            }                    @keyframes zoomIn {                0% {                    opacity: 0;                    transform: scale(0.5);                }                100% {                    opacity: 1;                    transform: scale(1);                }            }                    @keyframes floating {                0% {                    opacity: 1;                    transform: translateY(0px);                }                50% {                    transform: translateY(-10px);                }                100% {                    opacity: 1;                    transform: translateY(0px);                }            }                    @keyframes zoomOut {                0% {                    opacity: 0;                    transform: scale(1.5);                }                100% {                    opacity: 1;                    transform: scale(1);                }            }        </style><g id="freepik--background-complete--inject-44" class="animable" style="transform-origin: 250px 228.23px;"><rect y="382.4" width="500" height="0.25" style="fill: rgb(235, 235, 235); transform-origin: 250px 382.525px;" id="el5os2ji793v2" class="animable"></rect><path d="M237,337.8H43.91a5.71,5.71,0,0,1-5.7-5.71V60.66A5.71,5.71,0,0,1,43.91,55H237a5.71,5.71,0,0,1,5.71,5.71V332.09A5.71,5.71,0,0,1,237,337.8ZM43.91,55.2a5.46,5.46,0,0,0-5.45,5.46V332.09a5.46,5.46,0,0,0,5.45,5.46H237a5.47,5.47,0,0,0,5.46-5.46V60.66A5.47,5.47,0,0,0,237,55.2Z" style="fill: rgb(235, 235, 235); transform-origin: 140.46px 196.4px;" id="elas8304z1s08" class="animable"></path><path d="M453.31,337.8H260.21a5.72,5.72,0,0,1-5.71-5.71V60.66A5.72,5.72,0,0,1,260.21,55h193.1A5.71,5.71,0,0,1,459,60.66V332.09A5.71,5.71,0,0,1,453.31,337.8ZM260.21,55.2a5.47,5.47,0,0,0-5.46,5.46V332.09a5.47,5.47,0,0,0,5.46,5.46h193.1a5.47,5.47,0,0,0,5.46-5.46V60.66a5.47,5.47,0,0,0-5.46-5.46Z" style="fill: rgb(235, 235, 235); transform-origin: 356.75px 196.4px;" id="el8qj58bljgyk" class="animable"></path><rect x="423.9" y="391.92" width="26" height="0.25" style="fill: rgb(235, 235, 235); transform-origin: 436.9px 392.045px;" id="elol05lw4cy0r" class="animable"></rect><rect x="301.93" y="389.21" width="54.1" height="0.25" style="fill: rgb(235, 235, 235); transform-origin: 328.98px 389.335px;" id="elamk4d9qz8hq" class="animable"></rect><rect x="396.59" y="401.21" width="35.41" height="0.25" style="fill: rgb(235, 235, 235); transform-origin: 414.295px 401.335px;" id="elzmpx7gj2n7f" class="animable"></rect><rect x="52.46" y="399.53" width="23.69" height="0.25" style="fill: rgb(235, 235, 235); transform-origin: 64.305px 399.655px;" id="eloerebxhc9gg" class="animable"></rect><rect x="85.05" y="399.53" width="25.84" height="0.25" style="fill: rgb(235, 235, 235); transform-origin: 97.97px 399.655px;" id="el1qwtfjvtqh9h" class="animable"></rect><rect x="210.58" y="395.31" width="54.56" height="0.25" style="fill: rgb(235, 235, 235); transform-origin: 237.86px 395.435px;" id="eldw1gh4sdhs4" class="animable"></rect><rect x="74.94" y="355.67" width="9.59" height="22.56" style="fill: rgb(224, 224, 224); transform-origin: 79.735px 366.95px;" id="elbux1a7qg8a" class="animable"></rect><rect x="58.89" y="227.67" width="41.7" height="137.33" rx="1.06" style="fill: rgb(230, 230, 230); transform-origin: 79.74px 296.335px;" id="el3ah203w9f81" class="animable"></rect><polygon points="89 378.22 70.47 378.22 69.05 382.4 90.42 382.4 89 378.22" style="fill: rgb(230, 230, 230); transform-origin: 79.735px 380.31px;" id="el7ox7h6ftemw" class="animable"></polygon><g id="el1zlpp9kstyk"><rect x="15.07" y="279.48" width="129.33" height="33.7" rx="1.06" style="fill: rgb(250, 250, 250); transform-origin: 79.735px 296.33px; transform: rotate(90deg);" class="animable"></rect></g><polygon points="96.58 249.03 62.88 265.08 62.88 252.39 96.58 236.33 96.58 249.03" style="fill: rgb(240, 240, 240); transform-origin: 79.73px 250.705px;" id="elcxuk0trmnb" class="animable"></polygon><polygon points="96.58 279.45 62.88 295.5 62.88 282.8 96.58 266.75 96.58 279.45" style="fill: rgb(240, 240, 240); transform-origin: 79.73px 281.125px;" id="elczdvlo3zsy" class="animable"></polygon><polygon points="96.58 309.86 62.88 325.92 62.88 313.22 96.58 297.17 96.58 309.86" style="fill: rgb(240, 240, 240); transform-origin: 79.73px 311.545px;" id="eluaypntbfl9l" class="animable"></polygon><polygon points="96.58 340.28 62.88 356.33 62.88 343.64 96.58 327.58 96.58 340.28" style="fill: rgb(240, 240, 240); transform-origin: 79.73px 341.955px;" id="elia50874wvep" class="animable"></polygon><rect x="415.47" y="355.67" width="9.59" height="22.56" style="fill: rgb(224, 224, 224); transform-origin: 420.265px 366.95px;" id="eldyxs79e07rf" class="animable"></rect><rect x="399.42" y="227.67" width="41.7" height="137.33" rx="1.06" style="fill: rgb(230, 230, 230); transform-origin: 420.27px 296.335px;" id="eludw20k2itwd" class="animable"></rect><polygon points="429.53 378.22 411 378.22 409.58 382.4 430.95 382.4 429.53 378.22" style="fill: rgb(230, 230, 230); transform-origin: 420.265px 380.31px;" id="elsqh70nu38cs" class="animable"></polygon><g id="els4uxaotx318"><rect x="355.6" y="279.48" width="129.33" height="33.7" rx="1.06" style="fill: rgb(250, 250, 250); transform-origin: 420.265px 296.33px; transform: rotate(90deg);" class="animable"></rect></g><polygon points="437.12 249.03 403.42 265.08 403.42 252.39 437.12 236.33 437.12 249.03" style="fill: rgb(240, 240, 240); transform-origin: 420.27px 250.705px;" id="el73kb09usqyc" class="animable"></polygon><polygon points="437.12 279.45 403.42 295.5 403.42 282.8 437.12 266.75 437.12 279.45" style="fill: rgb(240, 240, 240); transform-origin: 420.27px 281.125px;" id="elhi9kzdmth0h" class="animable"></polygon><polygon points="437.12 309.86 403.42 325.92 403.42 313.22 437.12 297.17 437.12 309.86" style="fill: rgb(240, 240, 240); transform-origin: 420.27px 311.545px;" id="elemukqnjmg0a" class="animable"></polygon><polygon points="437.12 340.28 403.42 356.33 403.42 343.64 437.12 327.58 437.12 340.28" style="fill: rgb(240, 240, 240); transform-origin: 420.27px 341.955px;" id="ela1sqwzb19k" class="animable"></polygon><rect x="164.09" y="258.01" width="162.44" height="12.27" style="fill: rgb(240, 240, 240); transform-origin: 245.31px 264.145px;" id="el5tlwsn33x7q" class="animable"></rect><polygon points="326.53 270.28 164.09 270.28 149.35 382.4 318.87 382.4 326.53 270.28" style="fill: rgb(240, 240, 240); transform-origin: 237.94px 326.34px;" id="elg41ha95o5pk" class="animable"></polygon><polygon points="290.84 290.26 291.58 282.38 279.9 282.38 279.16 290.26 264.25 362.26 292.15 362.26 290.84 290.26" style="fill: rgb(224, 224, 224); transform-origin: 278.2px 322.32px;" id="elsvcfrb3zgc" class="animable"></polygon><polygon points="246.76 290.26 247.5 282.38 235.82 282.38 235.07 290.26 220.16 362.26 248.06 362.26 246.76 290.26" style="fill: rgb(224, 224, 224); transform-origin: 234.11px 322.32px;" id="el6vt8cg0gqgw" class="animable"></polygon><polygon points="202.68 290.26 203.42 282.38 191.74 282.38 190.99 290.26 176.08 362.26 203.98 362.26 202.68 290.26" style="fill: rgb(224, 224, 224); transform-origin: 190.03px 322.32px;" id="el9261x14t03" class="animable"></polygon><polygon points="337.56 270.28 337.56 258.01 326.53 258.01 326.53 270.28 318.87 382.4 345.22 382.4 337.56 270.28" style="fill: rgb(224, 224, 224); transform-origin: 332.045px 320.205px;" id="el6a8tzbqft1c" class="animable"></polygon><path d="M145.05,85.4H58.89A26.58,26.58,0,0,1,74.43,77c9.65-1.3,6.93,2.73,6.93,2.73s6.87-12.65,29-13.49,6.24,11.41,6.24,11.41,9.75-5.55,25.23-5.29S145.05,85.4,145.05,85.4Z" style="fill: rgb(245, 245, 245); transform-origin: 104.273px 75.7994px;" id="elysgh2olc7gh" class="animable"></path><path d="M291.2,128.68h-75a23.14,23.14,0,0,1,13.52-7.29c8.4-1.13,6,2.37,6,2.37s6-11,25.24-11.73,5.43,9.93,5.43,9.93,8.48-4.84,22-4.61S291.2,128.68,291.2,128.68Z" style="fill: rgb(250, 250, 250); transform-origin: 255.713px 120.337px;" id="elqcha3fw0fnh" class="animable"></path><path d="M402.52,95.72H282.28a31.31,31.31,0,0,1,25.54-11.1s12.2-17.46,35-19.15,11.55,14.39,11.55,14.39,8.57-10.79,33.25-10.37S396.43,83,396.43,83s12.76-2.11,16.3,3S402.52,95.72,402.52,95.72Z" style="fill: rgb(245, 245, 245); transform-origin: 347.796px 80.5328px;" id="el89ti82ofs5h" class="animable"></path></g><g id="freepik--Shadow--inject-44" class="animable" style="transform-origin: 250px 416.24px;"><ellipse id="freepik--path--inject-44" cx="250" cy="416.24" rx="193.89" ry="11.32" style="fill: rgb(245, 245, 245); transform-origin: 250px 416.24px;" class="animable"></ellipse></g><g id="freepik--character-2--inject-44" class="animable" style="transform-origin: 343.423px 255.763px;"><path d="M325.55,130.52c-4.77,6-12.53.74-10.83-4.79C315.76,122.34,328.58,126.68,325.55,130.52Z" style="fill: rgb(38, 50, 56); transform-origin: 320.247px 128.845px;" id="el9km1vu4im9" class="animable"></path><path d="M343.48,133.33c-2.79-1.59-13-1.5-15.86-1.5s-8-.62-9.37.75,1.24,8.34,1.24,8.34,12.37,5.46,16.88,5.46S346.74,135.19,343.48,133.33Z" style="fill: rgb(64, 123, 255); transform-origin: 331.139px 139.035px;" id="elkvc8frtkm1q" class="animable"></path><g id="elon1minzqu3s"><path d="M343.48,133.33c-2.79-1.59-13-1.5-15.86-1.5s-8-.62-9.37.75,1.24,8.34,1.24,8.34,12.37,5.46,16.88,5.46S346.74,135.19,343.48,133.33Z" style="opacity: 0.6; transform-origin: 331.139px 139.035px;" class="animable"></path></g><path d="M313.32,399.86h-9.4a.72.72,0,0,0-.69.66l-1.3,8.65a1.45,1.45,0,0,0,1.3,1.73c3.28-.07,4.87-.29,9-.29,2.54,0,9.41.31,12.92.31s3.81-4,2.35-4.41c-6.51-1.64-10.64-3.9-12.8-6.05A1.94,1.94,0,0,0,313.32,399.86Z" style="fill: rgb(38, 50, 56); transform-origin: 315.113px 405.39px;" id="elwc9zmqc0117" class="animable"></path><path d="M340.74,216.6s-7.67,57-9.37,79.58c-1.62,21.39-4,69.86-7.61,85a5,5,0,0,1-5,3.72l-14.46-.2a4.9,4.9,0,0,1-5.07-5.4c2.45-17,5.79-60.93,6.37-81.14.76-26.28-1.93-61.78,6.24-81.55Z" style="fill: rgb(64, 123, 255); transform-origin: 319.972px 300.751px;" id="elxa5q42lhcr9" class="animable"></path><path d="M308.68,385.2a5.73,5.73,0,0,1-4.36-1.95,5,5,0,0,1-1.21-4c2.5-17.31,5.81-61.89,6.36-81.3.19-6.29.17-13,.15-20.11-.05-22.76-.11-46.29,6.14-61.4l.94.39c-6.18,14.92-6.12,39.41-6.06,61,0,7.11,0,13.83-.15,20.14-.56,19.43-3.87,64.08-6.37,81.42a4,4,0,0,0,1,3.22,4.75,4.75,0,0,0,3.59,1.6Z" style="fill: rgb(255, 255, 255); transform-origin: 309.881px 300.82px;" id="el25n13ce09sw" class="animable"></path><polygon points="302.88 402.87 314.49 404.34 318.77 384.89 304.31 384.69 302.88 402.87" style="fill: rgb(38, 50, 56); transform-origin: 310.825px 394.515px;" id="elmicprp3rtoe" class="animable"></polygon><path d="M382.23,398.17l-9,2.52a.6.6,0,0,0-.37.8l2.48,8.34a1.75,1.75,0,0,0,2,1.24c3.12-.94,4.54-1.57,8.5-2.68,2.43-.68,9.14-2.24,12.5-3.19s1.91-4.75.36-4.7c-6.95.24-11.88-.74-14.87-2.15A2.22,2.22,0,0,0,382.23,398.17Z" style="fill: rgb(38, 50, 56); transform-origin: 386.599px 404.597px;" id="elt1jv6t6qo" class="animable"></path><path d="M362.06,255.15a8.63,8.63,0,0,1,6,8c.32,4.74,2.81,10.26,2.56,13.77s-4.47,5.83-4.47,5.83Z" style="fill: rgb(64, 123, 255); transform-origin: 366.349px 268.95px;" id="elbuyscrosljm" class="animable"></path><g id="elvsbhdlsty6m"><path d="M362.06,255.15a8.63,8.63,0,0,1,6,8c.32,4.74,2.81,10.26,2.56,13.77s-4.47,5.83-4.47,5.83Z" style="opacity: 0.1; transform-origin: 366.349px 268.95px;" class="animable"></path></g><path d="M356.62,216.6s9.54,59.79,14,83.44c4,20.81,7.41,61.47,12.53,79.67.6,2.11-.68,4.08-3,4.73l-13.93,3.73c-3,.84-6.48-.82-7.47-3.53-5.9-16.07-7.67-56.17-12.3-79.68-8.18-22.53-18.79-88.36-18.79-88.36Z" style="fill: rgb(64, 123, 255); transform-origin: 355.479px 302.495px;" id="elsiufnznvo2" class="animable"></path><polygon points="372.8 401.55 383.52 400.23 380.22 384.44 366.3 388.17 372.8 401.55" style="fill: rgb(38, 50, 56); transform-origin: 374.91px 392.995px;" id="el1qyb8yrctu9j" class="animable"></polygon><path d="M306.53,144c-3.2,1.25-5.4,5.15-4.67,8.31,6.65,28.62-.14,67,5.42,77.45,18.94,3.14,37,4.69,51.74,0,5.68-34.91-1.92-71.92-4.28-80.2-.57-2-2.4-3.27-4.47-4.08C343.08,142.7,314.77,140.8,306.53,144Z" style="fill: rgb(64, 123, 255); transform-origin: 331.401px 187.527px;" id="elrs3vos8qc0e" class="animable"></path><g id="el8ingu085747"><path d="M306.53,144c-3.2,1.25-5.4,5.15-4.67,8.31,6.65,28.62-.14,67,5.42,77.45,18.94,3.14,37,4.69,51.74,0,5.68-34.91-1.92-71.92-4.28-80.2-.57-2-2.4-3.27-4.47-4.08C343.08,142.7,314.77,140.8,306.53,144Z" style="opacity: 0.4; transform-origin: 331.401px 187.527px;" class="animable"></path></g><path d="M323.5,127.43c.59,5.61.21,12.58-5.68,16.4,0,0,2.13,5.67,16.2,5.5,12.85-.16,7.32-5.79,7.32-5.79-8.2-1.4-6.52-9.17-4.36-13.56Z" style="fill: rgb(255, 139, 123); transform-origin: 330.172px 138.382px;" id="elcvtlwqlszo7" class="animable"></path><g id="elshvcha5pyta"><path d="M337,130c-1.29,2.58-2.39,6.31-1.41,9.25a15,15,0,0,1-3.64-.82c-4.49-1.61-6.42-4.2-8.24-8.07,0-1-.1-2-.2-2.91Z" style="opacity: 0.2; transform-origin: 330.255px 133.35px;" class="animable"></path></g><path d="M335.45,107.73c6.71.45,4.46,6.88,2.28,9S331.2,107.45,335.45,107.73Z" style="fill: rgb(38, 50, 56); transform-origin: 336.79px 112.359px;" id="el2wmmguthqsl" class="animable"></path><path d="M338.8,111.73c6.18,2.46,1.8,7.85-1,9.19S334.88,110.16,338.8,111.73Z" style="fill: rgb(38, 50, 56); transform-origin: 338.853px 116.306px;" id="elxnfrb2z1bes" class="animable"></path><path d="M316.89,120.22c2.61,7.48,3.73,12,8.86,15,7.71,4.62,16.61-.87,16.41-8.82-.19-7.16-4.42-18.19-13.09-19.62S314.29,112.73,316.89,120.22Z" style="fill: rgb(255, 139, 123); transform-origin: 329.225px 121.755px;" id="eldzp2l49na2a" class="animable"></path><path d="M318.56,125.05c3.42.07,2.19-7.35,1.22-8.67,3.5-.62,16.53-5.15,16.58-7s-2.76-5-6.91-4.65-15.22,4-15.7,7.58S312.44,123.26,318.56,125.05Z" style="fill: rgb(38, 50, 56); transform-origin: 324.89px 114.877px;" id="elliidc8jgsim" class="animable"></path><path d="M337.32,108c1.37,6.13-5.88,5.87-8.66,4.49S336.45,104.07,337.32,108Z" style="fill: rgb(38, 50, 56); transform-origin: 332.843px 110.062px;" id="elzlu5wjo2c6g" class="animable"></path><path d="M316.79,127c-6.55-1.43-3.24-7.44-.72-9.22S320.94,127.92,316.79,127Z" style="fill: rgb(38, 50, 56); transform-origin: 316.009px 122.325px;" id="el9431lkv8wl" class="animable"></path><path d="M334.78,128.13a6.15,6.15,0,0,1-4.36-1.3.18.18,0,0,1,0-.26.21.21,0,0,1,.28,0,6,6,0,0,0,4.78,1.1.21.21,0,0,1,.24.14.19.19,0,0,1-.15.22A7.58,7.58,0,0,1,334.78,128.13Z" style="fill: rgb(38, 50, 56); transform-origin: 333.044px 127.335px;" id="el7hhx1eyityw" class="animable"></path><path d="M316.16,127.78a8,8,0,0,0,5.32,2.1c2.6,0,3.1-2.33,1.7-4.3-1.25-1.77-4.12-3.91-6.41-3S314.41,126.15,316.16,127.78Z" style="fill: rgb(255, 139, 123); transform-origin: 319.442px 126.122px;" id="elcfu8977qf7i" class="animable"></path><g id="elyw1t4csk0vp"><path d="M336.41,150.48c1.75,9.24,4.65,47.73,3.11,76.1C343.1,191.14,336.41,150.48,336.41,150.48Z" style="opacity: 0.2; transform-origin: 338.492px 188.53px;" class="animable"></path></g><path d="M329.61,119.86c.17.62.66,1,1.08,1s.64-.66.46-1.28-.65-1-1.08-1S329.44,119.25,329.61,119.86Z" style="fill: rgb(38, 50, 56); transform-origin: 330.381px 119.72px;" id="elkypetekpp8" class="animable"></path><path d="M337,118.37c.17.61.66,1,1.08,1s.64-.66.46-1.28-.65-1-1.08-1S336.8,117.75,337,118.37Z" style="fill: rgb(38, 50, 56); transform-origin: 337.765px 118.23px;" id="el3dwco9t7f1z" class="animable"></path><path d="M334.72,119a22.5,22.5,0,0,0,4.14,4.2,3.49,3.49,0,0,1-2.67,1.07Z" style="fill: rgb(255, 86, 82); transform-origin: 336.79px 121.637px;" id="elogfvshxz5e" class="animable"></path><path d="M341.52,122.21c1.47,1.14.93,7.85.23,9.74a7.76,7.76,0,0,1-5,4.57c-3.11.77-9.82,1.63-10.48-2.65s-2.22-5.13-.8-7.35,7.52-5.08,10.73-5.29C338.39,121.1,339.79,120.87,341.52,122.21Z" style="fill: rgb(255, 255, 255); transform-origin: 333.672px 129.14px;" id="elv1z7gn65j4" class="animable"></path><path d="M326.3,127.66a.39.39,0,0,1-.15,0,15.33,15.33,0,0,1-6.77-4.67.5.5,0,0,1,.08-.71.52.52,0,0,1,.71.08,14.47,14.47,0,0,0,6.28,4.33.5.5,0,0,1,.33.64A.5.5,0,0,1,326.3,127.66Z" style="fill: rgb(255, 255, 255); transform-origin: 323.037px 124.921px;" id="elqhbpgo2jzd" class="animable"></path><path d="M323.69,131.29a6.15,6.15,0,0,1-3.25-.86.51.51,0,0,1-.17-.7.5.5,0,0,1,.69-.17c2.53,1.54,5.79.08,5.83.07a.5.5,0,0,1,.67.25.52.52,0,0,1-.25.67A9.35,9.35,0,0,1,323.69,131.29Z" style="fill: rgb(255, 255, 255); transform-origin: 323.849px 130.389px;" id="elcuv9fndrznp" class="animable"></path><path d="M327.74,119.31a.35.35,0,0,0,.24-.22,2.9,2.9,0,0,1,2-1.85.35.35,0,0,0,.28-.44.43.43,0,0,0-.49-.29,3.63,3.63,0,0,0-2.51,2.32.38.38,0,0,0,.25.47A.46.46,0,0,0,327.74,119.31Z" style="fill: rgb(38, 50, 56); transform-origin: 328.759px 117.911px;" id="ela4wi4j081mt" class="animable"></path><path d="M340,116a.34.34,0,0,0,.12-.12.35.35,0,0,0-.15-.5,4.34,4.34,0,0,0-3.65-.35.34.34,0,0,0-.17.48.42.42,0,0,0,.54.18h0a3.47,3.47,0,0,1,2.89.31A.42.42,0,0,0,340,116Z" style="fill: rgb(38, 50, 56); transform-origin: 338.14px 115.419px;" id="el94p04l6fa8f" class="animable"></path><path d="M334.36,150.71l1.35-5.71s-2.93-8.68-4.89-9.05a15,15,0,0,1-8.05-2c-1.84-.89-2.26-1.54-3.11-1.72a1.66,1.66,0,0,0-2,1.23,73.18,73.18,0,0,0-1.36,9.42C319.49,147.57,324.73,149.81,334.36,150.71Z" style="fill: rgb(64, 123, 255); transform-origin: 326.005px 141.447px;" id="elqqtjbp0mcs" class="animable"></path><g id="elnzbils6np6o"><path d="M334.36,150.71l1.35-5.71s-2.93-8.68-4.89-9.05a15,15,0,0,1-8.05-2c-1.84-.89-2.26-1.54-3.11-1.72a1.66,1.66,0,0,0-2,1.23,73.18,73.18,0,0,0-1.36,9.42C319.49,147.57,324.73,149.81,334.36,150.71Z" style="opacity: 0.4; transform-origin: 326.005px 141.447px;" class="animable"></path></g><path d="M334.36,150.71l1.35-5.71s4-6.36,4.29-9.09c3-1.63-1.21-3,2.93-2.74,1.72.11,1.75,3.19,1.75,3.19a82.39,82.39,0,0,1-1,9C342.16,148.83,339.14,150.4,334.36,150.71Z" style="fill: rgb(64, 123, 255); transform-origin: 339.52px 141.924px;" id="el96bnidh3ljh" class="animable"></path><g id="elz9us732zzkl"><path d="M334.36,150.71l1.35-5.71s4-6.36,4.29-9.09c3-1.63-1.21-3,2.93-2.74,1.72.11,1.75,3.19,1.75,3.19a82.39,82.39,0,0,1-1,9C342.16,148.83,339.14,150.4,334.36,150.71Z" style="opacity: 0.4; transform-origin: 339.52px 141.924px;" class="animable"></path></g><path d="M309.72,143.76a.71.71,0,0,1,.08-1.31c1.85-.73,4.76-1.71,6.63-1.45,2.91.42,12,18.84,15,33.95s.82,38-.27,42.39c-13,.11-25.2-2.72-28-4.35-.44-5.85.92-36.74.92-36.74S316.4,164,315.17,153.86C314.37,147.22,311.56,144.71,309.72,143.76Z" style="fill: rgb(64, 123, 255); transform-origin: 318.011px 179.15px;" id="elnsd9zrahpc" class="animable"></path><g id="elxqglyjpfn6"><path d="M309.72,143.76a.71.71,0,0,1,.08-1.31c1.85-.73,4.76-1.71,6.63-1.45,2.91.42,12,18.84,15,33.95s.82,38-.27,42.39c-13,.11-25.2-2.72-28-4.35-.44-5.85.92-36.74.92-36.74S316.4,164,315.17,153.86C314.37,147.22,311.56,144.71,309.72,143.76Z" style="fill: rgb(255, 255, 255); opacity: 0.6; transform-origin: 318.011px 179.15px;" class="animable"></path></g><path d="M299.16,223.55l2,5.11a5.75,5.75,0,0,1,.2,3.73l-.87,3a2.51,2.51,0,0,1-2.85,1.7l-3.89-.64a2.35,2.35,0,0,1-2-2.63l.69-4.47s-2.23-6.15,2.49-8.81Z" style="fill: rgb(64, 123, 255); transform-origin: 296.655px 228.836px;" id="elm20tez03mji" class="animable"></path><g id="el3ctzi4vyq9r"><path d="M299.16,223.55l2,5.11a5.75,5.75,0,0,1,.2,3.73l-.87,3a2.51,2.51,0,0,1-2.85,1.7l-3.89-.64a2.35,2.35,0,0,1-2-2.63l.69-4.47s-2.23-6.15,2.49-8.81Z" style="fill: rgb(255, 255, 255); opacity: 0.3; transform-origin: 296.655px 228.836px;" class="animable"></path></g><path d="M300.77,219.8a6.66,6.66,0,0,1-.66,5.43,9.26,9.26,0,0,1-8.42,0,3.4,3.4,0,0,1,.15-3.83Z" style="fill: rgb(64, 123, 255); transform-origin: 296.122px 223.021px;" id="elv7651dfpw4" class="animable"></path><path d="M303.14,146.81l2.6,1.52a12.79,12.79,0,0,1,5.31,16.89c-4.55,9-10.3,21.06-10.32,24.06,0,6.78,1.32,23.59.64,31.7-1.73,2.47-9.1,3.52-10.66,2.22-4.51-11-4.63-31.1-3.93-37.16C288.36,172.23,303.14,146.81,303.14,146.81Z" style="fill: rgb(64, 123, 255); transform-origin: 299.421px 185.285px;" id="eludxuuvxyto" class="animable"></path><g id="eljohz57jvi9n"><path d="M303.14,146.81l2.6,1.52a12.79,12.79,0,0,1,5.31,16.89c-4.55,9-10.3,21.06-10.32,24.06,0,6.78,1.32,23.59.64,31.7-1.73,2.47-9.1,3.52-10.66,2.22-4.51-11-4.63-31.1-3.93-37.16C288.36,172.23,303.14,146.81,303.14,146.81Z" style="opacity: 0.4; transform-origin: 299.421px 185.285px;" class="animable"></path></g><path d="M378.77,218.41l4.27,3.74a6.11,6.11,0,0,1,1.94,3.27l.66,3.09a2.32,2.32,0,0,1-1.76,2.69l-3.79,1a2.54,2.54,0,0,1-3.08-1.52l-1.49-4.29s-4.92-4.62-1.93-8.94Z" style="fill: rgb(64, 123, 255); transform-origin: 379.153px 224.876px;" id="el1b3oirwit69h" class="animable"></path><g id="el8jsbg66qc0c"><path d="M378.77,218.41l4.27,3.74a6.11,6.11,0,0,1,1.94,3.27l.66,3.09a2.32,2.32,0,0,1-1.76,2.69l-3.79,1a2.54,2.54,0,0,1-3.08-1.52l-1.49-4.29s-4.92-4.62-1.93-8.94Z" style="fill: rgb(255, 255, 255); opacity: 0.3; transform-origin: 379.153px 224.876px;" class="animable"></path></g><path d="M378.44,214.38a6.71,6.71,0,0,1,2,5.15,8.84,8.84,0,0,1-7.56,3.44,3.48,3.48,0,0,1-1.68-3.5Z" style="fill: rgb(64, 123, 255); transform-origin: 375.807px 218.684px;" id="elege4xrgnv1n" class="animable"></path><path d="M340.72,146.31l3.06,0c7.2-.06,13.31,4.9,14.25,11.55,1.4,9.91,3.51,22.91,5.24,25.46,3.89,5.72,13.06,24.34,16.27,31.9-.38,2.92-6.49,6.89-8.51,6.38-9.27-8.08-18.46-28.55-21.39-34C343,175.15,340.72,146.31,340.72,146.31Z" style="fill: rgb(64, 123, 255); transform-origin: 360.13px 183.977px;" id="eljwpoepii0os" class="animable"></path><g id="elxx8lxuyodjk"><path d="M340.72,146.31l3.06,0c7.2-.06,13.31,4.9,14.25,11.55,1.4,9.91,3.51,22.91,5.24,25.46,3.89,5.72,13.06,24.34,16.27,31.9-.38,2.92-6.49,6.89-8.51,6.38-9.27-8.08-18.46-28.55-21.39-34C343,175.15,340.72,146.31,340.72,146.31Z" style="opacity: 0.4; transform-origin: 360.13px 183.977px;" class="animable"></path></g><path d="M345.24,145.15c1.43,7.78,4.95,40.34-.56,72.19A39.27,39.27,0,0,0,360.17,216a3.14,3.14,0,0,0,2.36-3c-.18-8-.9-35.1-2.28-46.37-1.63-13.3-5.07-19.38-7.52-20.69a28.87,28.87,0,0,0-6.14-1.94A1.07,1.07,0,0,0,345.24,145.15Z" style="fill: rgb(64, 123, 255); transform-origin: 353.605px 180.776px;" id="el1weeo5ji3wd" class="animable"></path><g id="elx5t41iuuq6"><path d="M345.24,145.15c1.43,7.78,4.95,40.34-.56,72.19A39.27,39.27,0,0,0,360.17,216a3.14,3.14,0,0,0,2.36-3c-.18-8-.9-35.1-2.28-46.37-1.63-13.3-5.07-19.38-7.52-20.69a28.87,28.87,0,0,0-6.14-1.94A1.07,1.07,0,0,0,345.24,145.15Z" style="fill: rgb(255, 255, 255); opacity: 0.6; transform-origin: 353.605px 180.776px;" class="animable"></path></g><path d="M334.84,106.68c4-1.24,9.55-1.54,7,1.23s-5-1.62-11.5,5.3-13.4,5.28-13.4,5.28S324.21,109.93,334.84,106.68Z" style="fill: rgb(64, 123, 255); transform-origin: 329.713px 112.215px;" id="elbly49mijogd" class="animable"></path><path d="M336.36,106.79c-.9-1.91-7.24-6.49-10.13-6.36-5.19.24-12.31,5.7-14.81,8.42-2.73,3-.9,7.73,2.37,11.64C323.25,116.25,336.36,106.79,336.36,106.79Z" style="fill: rgb(64, 123, 255); transform-origin: 323.227px 110.459px;" id="el15xp8jx95s" class="animable"></path><g id="eld5ijr89yzb6"><path d="M336.36,106.79c-.9-1.91-7.24-6.49-10.13-6.36-5.19.24-12.31,5.7-14.81,8.42-2.73,3-.9,7.73,2.37,11.64C323.25,116.25,336.36,106.79,336.36,106.79Z" style="fill: rgb(255, 255, 255); opacity: 0.2; transform-origin: 323.227px 110.459px;" class="animable"></path></g></g><g id="freepik--character-1--inject-44" class="animable" style="transform-origin: 143.476px 244.826px;"><path d="M163.51,111c2.81-1.72,13.08-1.62,16-1.62s8.06-.68,9.46.81-1.25,9-1.25,9-12.49,5.91-17,5.91S160.23,113,163.51,111Z" style="fill: rgb(64, 123, 255); transform-origin: 175.973px 117.163px;" id="elv9yaqv2i7ya" class="animable"></path><g id="elv2aqx871abd"><path d="M163.51,111c2.81-1.72,13.08-1.62,16-1.62s8.06-.68,9.46.81-1.25,9-1.25,9-12.49,5.91-17,5.91S160.23,113,163.51,111Z" style="opacity: 0.4; transform-origin: 175.973px 117.163px;" class="animable"></path></g><path d="M199,399.35h9.48a.76.76,0,0,1,.7.72l1.3,9.36a1.54,1.54,0,0,1-1.3,1.87c-3.31-.07-4.91-.31-9.08-.31-2.57,0-9.49.33-13,.33s-3.84-4.37-2.37-4.77c6.57-1.77,10.73-4.22,12.91-6.55A1.92,1.92,0,0,1,199,399.35Z" style="fill: rgb(38, 50, 56); transform-origin: 197.213px 405.335px;" id="el1zs4c1cnof1" class="animable"></path><path d="M166.27,201.07s9,62.45,12,86.78c2.83,23,6.53,74.91,10.2,91.28a5.16,5.16,0,0,0,5,4l14.59-.21a5.15,5.15,0,0,0,5.11-5.84c-2.47-18.37-7.16-66.67-8.88-88.48-2.23-28.35-.67-66.17-8.91-87.55Z" style="fill: rgb(64, 123, 255); transform-origin: 189.743px 292.09px;" id="eldk3i06ne6r5" class="animable"></path><path d="M203.67,383.47v-1.06a4.62,4.62,0,0,0,4.58-5.24c-2.5-18.67-7.24-67.64-8.88-88.5-.64-8.09-1-16.77-1.3-26-.84-22.73-1.71-46.23-7.57-61.44l1-.38c5.92,15.37,6.8,39,7.64,61.79.34,9.17.66,17.84,1.3,25.91,1.64,20.85,6.37,69.79,8.87,88.45a5.67,5.67,0,0,1-5.63,6.44Z" style="fill: rgb(255, 255, 255); transform-origin: 199.931px 292.16px;" id="elbw7n6c6sosj" class="animable"></path><polygon points="209.52 402.62 197.81 404.2 193.49 383.15 208.08 382.94 209.52 402.62" style="fill: rgb(38, 50, 56); transform-origin: 201.505px 393.57px;" id="el91ehqotrg6w" class="animable"></polygon><path d="M150.23,399.35h9.48a.66.66,0,0,1,.61.72l.2,9.36A1.76,1.76,0,0,1,159,411.3c-3.3-.07-4.87-.31-9-.31-2.57,0-9.53.33-13.07.33s-3.33-4.37-1.81-4.77c6.78-1.77,11.23-4.22,13.68-6.55A2.16,2.16,0,0,1,150.23,399.35Z" style="fill: rgb(38, 50, 56); transform-origin: 147.302px 405.335px;" id="eltk8ml1son4l" class="animable"></path><path d="M148.27,240.83a8.4,8.4,0,0,0-5,8.2c0,4.68-1.94,10.23-1.5,13.67s4.45,5.47,4.45,5.47Z" style="fill: rgb(64, 123, 255); transform-origin: 144.988px 254.5px;" id="elwxksaasweer" class="animable"></path><g id="elkovx5lv12tb"><path d="M148.27,240.83a8.4,8.4,0,0,0-5,8.2c0,4.68-1.94,10.23-1.5,13.67s4.45,5.47,4.45,5.47Z" style="opacity: 0.1; transform-origin: 144.988px 254.5px;" class="animable"></path></g><path d="M150.26,201.07s-5.7,66-7.17,91.91c-1.3,22.83-1.57,65.81-.8,86.15a4.15,4.15,0,0,0,4.35,4l14.62-.21a6.32,6.32,0,0,0,6.1-5.84c.64-18.37-1.09-55.91.53-81.72,5.3-25.18,11.5-94.31,11.5-94.31Z" style="fill: rgb(64, 123, 255); transform-origin: 160.626px 292.092px;" id="elgvj992fjlop" class="animable"></path><polygon points="160.37 402.62 148.48 404.2 146.64 383.15 161.25 382.94 160.37 402.62" style="fill: rgb(38, 50, 56); transform-origin: 153.945px 393.57px;" id="el5obr80kpjde" class="animable"></polygon><path d="M200.78,122.54a8.52,8.52,0,0,1,4.7,9c-6.71,31,.14,72.47-5.47,83.8-19.09,3.4-37.33,5.08-52.18,0-5.72-37.77,1.94-77.82,4.32-86.78.58-2.19,2.43-3.53,4.51-4.4C163.91,121.1,192.46,119,200.78,122.54Z" style="fill: rgb(64, 123, 255); transform-origin: 175.669px 169.62px;" id="elfvt4gdnal9t" class="animable"></path><g id="elmuzbyy912q"><path d="M200.78,122.54a8.52,8.52,0,0,1,4.7,9c-6.71,31,.14,72.47-5.47,83.8-19.09,3.4-37.33,5.08-52.18,0-5.72-37.77,1.94-77.82,4.32-86.78.58-2.19,2.43-3.53,4.51-4.4C163.91,121.1,192.46,119,200.78,122.54Z" style="opacity: 0.2; transform-origin: 175.669px 169.62px;" class="animable"></path></g><path d="M183.66,104.57c-.59,6.08-.22,13.62,5.73,17.75,0,0-2.16,6.14-16.34,6-13-.17-7.39-6.26-7.39-6.26,8.27-1.51,6.59-9.92,4.4-14.67Z" style="fill: rgb(181, 91, 82); transform-origin: 176.923px 116.446px;" id="eltu4f2wiqj3" class="animable"></path><g id="el151d32dwdbo"><path d="M170.06,107.34c1.29,2.79,2.4,6.83,1.42,10a14.54,14.54,0,0,0,3.67-.88c4.53-1.74,6.47-4.55,8.31-8.73,0-1.08.1-2.14.2-3.16Z" style="opacity: 0.2; transform-origin: 176.86px 110.955px;" class="animable"></path></g><path d="M163.84,100.54a7.52,7.52,0,0,0,3.89,4.5c2.48,1.16,4.28-1,4.06-3.65-.2-2.37-1.73-5.83-4.44-5.88A3.76,3.76,0,0,0,163.84,100.54Z" style="fill: rgb(181, 91, 82); transform-origin: 167.714px 100.436px;" id="elxgrj2spk6" class="animable"></path><g id="elv01klimg7y"><path d="M163.84,100.54a7.52,7.52,0,0,0,3.89,4.5c2.48,1.16,4.28-1,4.06-3.65-.2-2.37-1.73-5.83-4.44-5.88A3.76,3.76,0,0,0,163.84,100.54Z" style="opacity: 0.2; transform-origin: 167.714px 100.436px;" class="animable"></path></g><path d="M171.91,82.78c-2.79,2-4.5,7.43-2.3,9.73S175.43,80.3,171.91,82.78Z" style="fill: rgb(38, 50, 56); transform-origin: 170.994px 87.6259px;" id="elqldebsz3awp" class="animable"></path><path d="M190.32,96.77c-2.62,8.1-3.76,13-8.93,16.27-7.77,5-16.75-.94-16.54-9.55C165,95.74,169.3,83.81,178,82.27S193,88.68,190.32,96.77Z" style="fill: rgb(181, 91, 82); transform-origin: 177.895px 98.4727px;" id="elyori9t6blo" class="animable"></path><path d="M188.64,102c-3.45.08-2.2-8-1.23-9.37-3.53-.68-16.67-5.58-16.72-7.56s2.78-5.43,7-5,15.35,4.32,15.83,8.2S194.82,100.06,188.64,102Z" style="fill: rgb(38, 50, 56); transform-origin: 182.268px 91.0169px;" id="el76u18mku5th" class="animable"></path><path d="M172.28,105.34a6,6,0,0,0,4.4-1.41.19.19,0,1,0-.27-.28,5.73,5.73,0,0,1-4.82,1.19.2.2,0,1,0-.09.39A7.69,7.69,0,0,0,172.28,105.34Z" style="fill: rgb(38, 50, 56); transform-origin: 174.042px 104.479px;" id="el1d2yay628gd" class="animable"></path><path d="M191.61,105a8.31,8.31,0,0,1-5.68,2.4c-2.78,0-3.31-2.67-1.82-4.93,1.34-2,4.41-4.49,6.86-3.42S193.48,103.11,191.61,105Z" style="fill: rgb(181, 91, 82); transform-origin: 188.109px 103.096px;" id="el33vpko5ueio" class="animable"></path><g id="el74rxkl3oyd2"><path d="M170.64,129.52c-1.76,10-4.69,51.64-3.13,82.34C163.89,173.52,170.64,129.52,170.64,129.52Z" style="opacity: 0.2; transform-origin: 168.541px 170.69px;" class="animable"></path></g><path d="M177.49,96.39c-.17.67-.66,1.14-1.09,1s-.63-.71-.46-1.38.66-1.13,1.09-1S177.67,95.72,177.49,96.39Z" style="fill: rgb(38, 50, 56); transform-origin: 176.717px 96.2014px;" id="el2y8bpvv8ia5" class="animable"></path><path d="M170.07,94.77c-.17.67-.66,1.13-1.09,1s-.64-.71-.46-1.38.66-1.13,1.09-1S170.25,94.1,170.07,94.77Z" style="fill: rgb(38, 50, 56); transform-origin: 169.295px 94.58px;" id="el34302myffg" class="animable"></path><path d="M172.35,95.44a23.87,23.87,0,0,1-4.18,4.55,3.39,3.39,0,0,0,2.69,1.16Z" style="fill: rgb(160, 39, 36); transform-origin: 170.26px 98.2963px;" id="el1qoznireefwi" class="animable"></path><path d="M165.49,98.93c-1.49,1.23-.94,8.5-.23,10.54a8,8,0,0,0,5,4.94c3.14.84,9.9,1.77,10.57-2.86s2.23-5.55.8-8-7.59-5.5-10.82-5.72C168.65,97.73,167.23,97.48,165.49,98.93Z" style="fill: rgb(255, 255, 255); transform-origin: 173.38px 106.424px;" id="elteshh45xccc" class="animable"></path><path d="M180.84,104.81a.54.54,0,0,1-.51-.36.53.53,0,0,1,.34-.67A14.55,14.55,0,0,0,187,99.1a.54.54,0,0,1,.74-.11.53.53,0,0,1,.11.74,15.5,15.5,0,0,1-6.84,5.06Z" style="fill: rgb(255, 255, 255); transform-origin: 184.129px 101.85px;" id="eld0mg8n1mulw" class="animable"></path><path d="M183.47,108.73a8.84,8.84,0,0,1-3.57-.8.53.53,0,0,1,.47-1s3.29,1.58,5.82-.07a.54.54,0,0,1,.74.15.53.53,0,0,1-.16.74A6,6,0,0,1,183.47,108.73Z" style="fill: rgb(255, 255, 255); transform-origin: 183.3px 107.752px;" id="eltw05hue5d6" class="animable"></path><path d="M179.39,95.8a.39.39,0,0,1-.25-.25,3,3,0,0,0-2-2,.39.39,0,0,1-.28-.48.42.42,0,0,1,.49-.3,3.68,3.68,0,0,1,2.54,2.5.42.42,0,0,1-.51.53Z" style="fill: rgb(38, 50, 56); transform-origin: 178.378px 94.2878px;" id="elig0t8995n7" class="animable"></path><path d="M167,92.21a.3.3,0,0,1-.12-.13.39.39,0,0,1,.15-.54,4.11,4.11,0,0,1,3.68-.38.36.36,0,0,1,.17.52.42.42,0,0,1-.54.2h0a3.24,3.24,0,0,0-2.91.33A.41.41,0,0,1,167,92.21Z" style="fill: rgb(38, 50, 56); transform-origin: 168.879px 91.5808px;" id="eloplqr46232h" class="animable"></path><path d="M172.71,129.76l-1.37-6.17s3-9.4,4.94-9.79a14.46,14.46,0,0,0,8.12-2.12c1.85-1,2.28-1.67,3.13-1.87a1.68,1.68,0,0,1,2,1.34,83.21,83.21,0,0,1,1.37,10.19C187.71,126.37,182.41,128.79,172.71,129.76Z" style="fill: rgb(64, 123, 255); transform-origin: 181.12px 119.767px;" id="el8h0n9lg101r" class="animable"></path><g id="eln1a78373dai"><path d="M172.71,129.76l-1.37-6.17s3-9.4,4.94-9.79a14.46,14.46,0,0,0,8.12-2.12c1.85-1,2.28-1.67,3.13-1.87a1.68,1.68,0,0,1,2,1.34,83.21,83.21,0,0,1,1.37,10.19C187.71,126.37,182.41,128.79,172.71,129.76Z" style="opacity: 0.2; transform-origin: 181.12px 119.767px;" class="animable"></path></g><path d="M172.71,129.76l-1.37-6.17s-4.05-6.88-4.32-9.84c-3-1.76,1.22-3.25-3-3-1.73.11-1.76,3.45-1.76,3.45a93.87,93.87,0,0,0,1,9.74C164.84,127.73,167.88,129.43,172.71,129.76Z" style="fill: rgb(64, 123, 255); transform-origin: 167.485px 120.241px;" id="elk3w4y4t77bd" class="animable"></path><g id="elh49na60zwz7"><path d="M172.71,129.76l-1.37-6.17s-4.05-6.88-4.32-9.84c-3-1.76,1.22-3.25-3-3-1.73.11-1.76,3.45-1.76,3.45a93.87,93.87,0,0,0,1,9.74C164.84,127.73,167.88,129.43,172.71,129.76Z" style="opacity: 0.2; transform-origin: 167.485px 120.241px;" class="animable"></path></g><path d="M197.56,122.25a.79.79,0,0,0-.08-1.42c-1.87-.79-4.8-1.85-6.69-1.56-2.94.44-12.12,20.37-15.1,36.72s-.83,41.17.27,45.87c13.1.12,25.42-2.94,28.26-4.7.45-6.34-.93-39.76-.93-39.76s-12.47-13.29-11.23-24.23C192.87,126,195.71,123.27,197.56,122.25Z" style="fill: rgb(64, 123, 255); transform-origin: 189.243px 160.542px;" id="elbfod37tyxs" class="animable"></path><g id="elf4bnwmv8sw"><path d="M197.56,122.25a.79.79,0,0,0-.08-1.42c-1.87-.79-4.8-1.85-6.69-1.56-2.94.44-12.12,20.37-15.1,36.72s-.83,41.17.27,45.87c13.1.12,25.42-2.94,28.26-4.7.45-6.34-.93-39.76-.93-39.76s-12.47-13.29-11.23-24.23C192.87,126,195.71,123.27,197.56,122.25Z" style="fill: rgb(255, 255, 255); opacity: 0.7; transform-origin: 189.243px 160.542px;" class="animable"></path></g><path d="M201.27,204.13l-5.72,1.48a6.57,6.57,0,0,0-3.42,2.15l-2.19,2.61a2.52,2.52,0,0,0,.14,3.41l2.82,2.81a2.52,2.52,0,0,0,3.51.06L200,213.3s6.75-2,6.37-7.53Z" style="fill: rgb(64, 123, 255); transform-origin: 197.864px 210.731px;" id="elqxark10epa" class="animable"></path><g id="elqnia0sn7x19"><path d="M201.27,204.13l-5.72,1.48a6.57,6.57,0,0,0-3.42,2.15l-2.19,2.61a2.52,2.52,0,0,0,.14,3.41l2.82,2.81a2.52,2.52,0,0,0,3.51.06L200,213.3s6.75-2,6.37-7.53Z" style="fill: rgb(255, 255, 255); opacity: 0.3; transform-origin: 197.864px 210.731px;" class="animable"></path></g><path d="M201.15,200.51a6.33,6.33,0,0,0-1.24,3.33,7.49,7.49,0,0,0,6.2,5.08,3.9,3.9,0,0,0,2.42-3.38Z" style="fill: rgb(64, 123, 255); transform-origin: 204.22px 204.715px;" id="elmcyiydmp55n" class="animable"></path><path d="M204.19,125.54l-12.13,10.31s20.29,30.21,19.07,35.47c-1.66,7.14-6.83,20.94-10.31,29,.3,3.17,5.74,7.33,7.79,6.83,9.61-8.45,18.79-32.44,18-39C224.79,153.26,204.19,125.54,204.19,125.54Z" style="fill: rgb(64, 123, 255); transform-origin: 209.359px 166.366px;" id="el0m03lbr8birf" class="animable"></path><g id="el49rhv4suxvz"><path d="M204.19,125.54l-12.13,10.31s20.29,30.21,19.07,35.47c-1.66,7.14-6.83,20.94-10.31,29,.3,3.17,5.74,7.33,7.79,6.83,9.61-8.45,18.79-32.44,18-39C224.79,153.26,204.19,125.54,204.19,125.54Z" style="opacity: 0.2; transform-origin: 209.359px 166.366px;" class="animable"></path></g><path d="M88.56,148.5l-4.9-3.31a6.67,6.67,0,0,0-3.88-1.13l-3.41.09a2.51,2.51,0,0,0-2.45,2.37l-.24,4A2.52,2.52,0,0,0,76,153.16l4.86.45s6,3.73,9.86-.23Z" style="fill: rgb(64, 123, 255); transform-origin: 82.1984px 149.63px;" id="elyjb6dapq3k9" class="animable"></path><g id="elckhj5hv94w9"><path d="M88.56,148.5l-4.9-3.31a6.67,6.67,0,0,0-3.88-1.13l-3.41.09a2.51,2.51,0,0,0-2.45,2.37l-.24,4A2.52,2.52,0,0,0,76,153.16l4.86.45s6,3.73,9.86-.23Z" style="fill: rgb(255, 255, 255); opacity: 0.3; transform-origin: 82.1984px 149.63px;" class="animable"></path></g><path d="M91.81,148.39a6.32,6.32,0,0,0-3.51-.55,7.5,7.5,0,0,0-3.74,7.1,3.9,3.9,0,0,0,3.8,1.68Z" style="fill: rgb(64, 123, 255); transform-origin: 88.1731px 152.224px;" id="els0t9alh4xh" class="animable"></path><path d="M165.87,136.38l-12.53-9.83s-25.54,25.92-30.93,25.78c-7.33-.19-21.88-2.5-30.5-4.3-3,.93-6,7.09-5.14,9,10.21,7.71,35.55,11.91,41.8,9.82C142.83,162.1,165.87,136.38,165.87,136.38Z" style="fill: rgb(64, 123, 255); transform-origin: 126.245px 146.967px;" id="elhamwwjwc059" class="animable"></path><g id="elrscxchujdo"><path d="M165.87,136.38l-12.53-9.83s-25.54,25.92-30.93,25.78c-7.33-.19-21.88-2.5-30.5-4.3-3,.93-6,7.09-5.14,9,10.21,7.71,35.55,11.91,41.8,9.82C142.83,162.1,165.87,136.38,165.87,136.38Z" style="opacity: 0.2; transform-origin: 126.245px 146.967px;" class="animable"></path></g><path d="M161.74,123.75c-1.45,8.42-5,43.65.56,78.12a37,37,0,0,1-15.62-1.44,3.33,3.33,0,0,1-2.38-3.29c.18-8.67.9-38,2.3-50.17,1.64-14.38,5.11-21,7.58-22.38a27.42,27.42,0,0,1,6.19-2.11A1.12,1.12,0,0,1,161.74,123.75Z" style="fill: rgb(64, 123, 255); transform-origin: 153.299px 162.296px;" id="elc5tod1okdsj" class="animable"></path><g id="eljgusa2ow7rl"><path d="M161.74,123.75c-1.45,8.42-5,43.65.56,78.12a37,37,0,0,1-15.62-1.44,3.33,3.33,0,0,1-2.38-3.29c.18-8.67.9-38,2.3-50.17,1.64-14.38,5.11-21,7.58-22.38a27.42,27.42,0,0,1,6.19-2.11A1.12,1.12,0,0,1,161.74,123.75Z" style="fill: rgb(255, 255, 255); opacity: 0.7; transform-origin: 153.299px 162.296px;" class="animable"></path></g><path d="M89,116.71a14.42,14.42,0,1,0-14.57,16.38c3.1,8.55,1.77,23.5,2.46,27.91.8,5.15,4.3,4.4,4.3,4.4s3.58-.23,3-5.4c-.54-4.44-5.88-18.46-5.23-27.53A14.41,14.41,0,0,0,89,116.71Z" style="fill: rgb(64, 123, 255); transform-origin: 74.7158px 134.845px;" id="elc0ipxmmbea" class="animable"></path><g id="elw8lycb5wy5"><path d="M89,116.71a14.42,14.42,0,1,0-14.57,16.38c3.1,8.55,1.77,23.5,2.46,27.91.8,5.15,4.3,4.4,4.3,4.4s3.58-.23,3-5.4c-.54-4.44-5.88-18.46-5.23-27.53A14.41,14.41,0,0,0,89,116.71Z" style="fill: rgb(255, 255, 255); opacity: 0.7; transform-origin: 74.7158px 134.845px;" class="animable"></path></g><g id="elqi4fofhxybi"><circle cx="74.7" cy="118.69" r="7.26" style="fill: rgb(64, 123, 255); transform-origin: 74.7px 118.69px; transform: rotate(-86.93deg);" class="animable"></circle></g><path d="M169.63,87.14c-4.27-.32-9.75.71-6.57,3s4.48-2.91,12.63,2.78,14.5,2.29,14.5,2.29S180.88,88,169.63,87.14Z" style="fill: rgb(64, 123, 255); transform-origin: 176.15px 91.6504px;" id="el4ucq5jbm7ya" class="animable"></path><path d="M168.17,87.62c.38-2.22,5.4-8.56,8.25-9.13,5.15-1,13.54,3,16.69,5.25,3.46,2.47,2.9,7.89.72,12.79C183.46,94.38,168.17,87.62,168.17,87.62Z" style="fill: rgb(64, 123, 255); transform-origin: 181.878px 87.4312px;" id="elj1p24d95w0r" class="animable"></path><g id="elkncv12ybkj"><path d="M168.17,87.62c.38-2.22,5.4-8.56,8.25-9.13,5.15-1,13.54,3,16.69,5.25,3.46,2.47,2.9,7.89.72,12.79C183.46,94.38,168.17,87.62,168.17,87.62Z" style="fill: rgb(255, 255, 255); opacity: 0.1; transform-origin: 181.878px 87.4312px;" class="animable"></path></g></g><g id="freepik--Blockade--inject-44" class="animable" style="transform-origin: 250px 323.355px;"><path d="M126.22,416.24h-8.11V254.88a4,4,0,0,1,4-4h0a4.05,4.05,0,0,1,4.06,4Z" style="fill: rgb(64, 123, 255); transform-origin: 122.165px 333.56px;" id="ell1sxeibvz7" class="animable"></path><g id="el21q6z6v5wcg"><path d="M126.22,416.24h-8.11V254.88a4,4,0,0,1,4-4h0a4.05,4.05,0,0,1,4.06,4Z" style="fill: rgb(255, 255, 255); opacity: 0.7; transform-origin: 122.165px 333.56px;" class="animable"></path></g><path d="M375.87,250.83h0a4.05,4.05,0,0,1,4.05,4.05V416.24a0,0,0,0,1,0,0h-8.11a0,0,0,0,1,0,0V254.88A4.05,4.05,0,0,1,375.87,250.83Z" style="fill: rgb(64, 123, 255); transform-origin: 375.865px 333.535px;" id="elhsvere92pt" class="animable"></path><g id="elw33qyppi92q"><path d="M375.87,250.83h0a4.05,4.05,0,0,1,4.05,4.05V416.24a0,0,0,0,1,0,0h-8.11a0,0,0,0,1,0,0V254.88A4.05,4.05,0,0,1,375.87,250.83Z" style="fill: rgb(255, 255, 255); opacity: 0.7; transform-origin: 375.865px 333.535px;" class="animable"></path></g><rect x="110" y="265.89" width="278.03" height="39.6" style="fill: rgb(64, 123, 255); transform-origin: 249.015px 285.69px;" id="el2cfsqfxeeqw" class="animable"></rect><g id="elrydqp21cp2j"><rect x="110" y="265.89" width="278.03" height="39.6" style="fill: rgb(255, 255, 255); opacity: 0.3; transform-origin: 249.015px 285.69px;" class="animable"></rect></g><g id="el8t77fxcqmz"><rect x="388.03" y="265.89" width="1.97" height="39.6" style="fill: rgb(64, 123, 255); transform-origin: 389.015px 285.69px; transform: rotate(180deg);" class="animable"></rect></g><g id="elrzj26menim9"><g style="opacity: 0.6; transform-origin: 249.015px 285.69px;" class="animable"><polygon points="154.44 305.49 126.22 305.49 140.4 265.89 168.63 265.89 154.44 305.49" style="fill: rgb(255, 255, 255); transform-origin: 147.425px 285.69px;" id="el1sh58krgh4b" class="animable"></polygon><polygon points="205.24 305.49 177.01 305.49 191.2 265.89 219.42 265.89 205.24 305.49" style="fill: rgb(255, 255, 255); transform-origin: 198.215px 285.69px;" id="elwuc3hb6t1fh" class="animable"></polygon><polygon points="256.03 305.49 227.81 305.49 242 265.89 270.22 265.89 256.03 305.49" style="fill: rgb(255, 255, 255); transform-origin: 249.015px 285.69px;" id="eloxzrvzx1jch" class="animable"></polygon><polygon points="306.83 305.49 278.61 305.49 292.79 265.89 321.02 265.89 306.83 305.49" style="fill: rgb(255, 255, 255); transform-origin: 299.815px 285.69px;" id="elknwz5sr8mop" class="animable"></polygon><polygon points="357.63 305.49 329.4 305.49 343.59 265.89 371.81 265.89 357.63 305.49" style="fill: rgb(255, 255, 255); transform-origin: 350.605px 285.69px;" id="elezcpuf9dukk" class="animable"></polygon></g></g><g id="elliaf9yaq8zl"><rect x="118.11" y="305.49" width="8.11" height="3.88" style="fill: rgb(64, 123, 255); opacity: 0.5; transform-origin: 122.165px 307.43px;" class="animable"></rect></g><g id="elp8b0ci13bas"><rect x="371.81" y="305.49" width="8.11" height="3.88" style="fill: rgb(64, 123, 255); opacity: 0.5; transform-origin: 375.865px 307.43px;" class="animable"></rect></g><path d="M294.06,252.8a52.67,52.67,0,0,0-4.52-6.11l.76-.65a53.81,53.81,0,0,1,4.6,6.23Z" style="fill: rgb(64, 123, 255); transform-origin: 292.22px 249.42px;" id="elevjagjuyuag" class="animable"></path><path d="M284.89,241.89A53.16,53.16,0,0,0,268.1,231.5l.36-.93a54.21,54.21,0,0,1,17.11,10.58Z" style="fill: rgb(64, 123, 255); transform-origin: 276.835px 236.23px;" id="ele7clsyywbk" class="animable"></path><circle cx="249.01" cy="281.27" r="50.8" style="fill: rgb(64, 123, 255); transform-origin: 249.01px 281.27px;" id="elypbvkqzg2as" class="animable"></circle><path d="M249,233.4a47.87,47.87,0,1,1-47.86,47.87A47.92,47.92,0,0,1,249,233.4m0-1.17a49,49,0,1,0,49,49,49,49,0,0,0-49-49Z" style="fill: rgb(255, 255, 255); transform-origin: 249px 281.23px;" id="elhs0pbj8w1w" class="animable"></path><rect x="217.33" y="272.06" width="63.37" height="18.41" rx="1.94" style="fill: rgb(255, 255, 255); transform-origin: 249.015px 281.265px;" id="elhuxse807vl6" class="animable"></rect></g><defs>     <filter id="active" height="200%">         <feMorphology in="SourceAlpha" result="DILATED" operator="dilate" radius="2"></feMorphology>                <feFlood flood-color="#32DFEC" flood-opacity="1" result="PINK"></feFlood>        <feComposite in="PINK" in2="DILATED" operator="in" result="OUTLINE"></feComposite>        <feMerge>            <feMergeNode in="OUTLINE"></feMergeNode>            <feMergeNode in="SourceGraphic"></feMergeNode>        </feMerge>    </filter>    <filter id="hover" height="200%">        <feMorphology in="SourceAlpha" result="DILATED" operator="dilate" radius="2"></feMorphology>                <feFlood flood-color="#ff0000" flood-opacity="0.5" result="PINK"></feFlood>        <feComposite in="PINK" in2="DILATED" operator="in" result="OUTLINE"></feComposite>        <feMerge>            <feMergeNode in="OUTLINE"></feMergeNode>            <feMergeNode in="SourceGraphic"></feMergeNode>        </feMerge>            <feColorMatrix type="matrix" values="0   0   0   0   0                0   1   0   0   0                0   0   0   0   0                0   0   0   1   0 "></feColorMatrix>    </filter></defs></svg>